name analog
datacolumns 19
datarows 70
range 0.419 0.4535
endheader
time	ground_force_vx	ground_force_vy	ground_force_vz	ground_force_px	ground_force_py	ground_force_pz	l_ground_force_vx	l_ground_force_vy	l_ground_force_vz	l_ground_force_px	l_ground_force_py	l_ground_force_pz	ground_torque_x	ground_torque_y	ground_torque_z	l_ground_torque_x	l_ground_torque_y	l_ground_torque_z
0.419	-0.0	-0.0	-0.0	-0.0	-0.0	-0.0	-2.897064685821533	7.0758209228515625	-621.8389892578125	-0.0	-0.0	-0.0	-0.0	-0.0	-0.0	166010.59375	-18886.6171875	-1302.0933837890625
0.4195	-0.0	-0.0	-0.0	-0.0	-0.0	-0.0	-1.0217509269714355	7.232515335083008	-621.062744140625	-0.0	-0.0	-0.0	-0.0	-0.0	-0.0	165109.109375	-19071.962890625	-785.513916015625
0.42	-0.0	-0.0	-0.0	-0.0	-0.0	-0.0	-0.0887107849121093	7.219367504119873	-618.5147705078125	-0.0	-0.0	-0.0	-0.0	-0.0	-0.0	164597.046875	-19580.896484375	-380.6225280761719
0.4205	-0.0	-0.0	-0.0	-0.0	-0.0	-0.0	0.0697174221277237	7.419021606445312	-617.9984130859375	-0.0	-0.0	-0.0	-0.0	-0.0	-0.0	164370.328125	-19982.00390625	-341.66815185546875
0.421	-0.0	-0.0	-0.0	-0.0	-0.0	-0.0	0.079445905983448	7.163280963897705	-618.623779296875	-0.0	-0.0	-0.0	-0.0	-0.0	-0.0	164207.484375	-20155.923828125	-372.83587646484375
0.4215	-0.0	-0.0	-0.0	-0.0	-0.0	-0.0	-0.2009414732456207	7.386569023132324	-619.908203125	-0.0	-0.0	-0.0	-0.0	-0.0	-0.0	164355.875	-20557.015625	-421.4281005859375
0.422	-0.0	-0.0	-0.0	-0.0	-0.0	-0.0	-0.4198929667472839	7.009795665740967	-620.7916259765625	-0.0	-0.0	-0.0	-0.0	-0.0	-0.0	164856.921875	-21098.404296875	-473.1427612304688
0.4225	-0.0	-0.0	-0.0	-0.0	-0.0	-0.0	-0.6468719840049744	6.86538028717041	-625.901123046875	-0.0	-0.0	-0.0	-0.0	-0.0	-0.0	165768.578125	-21543.80078125	-694.7259521484375
0.423	-0.0	-0.0	-0.0	-0.0	-0.0	-0.0	-0.7983970642089844	6.977413177490234	-629.9969482421875	-0.0	-0.0	-0.0	-0.0	-0.0	-0.0	166125.78125	-22322.908203125	-770.0606689453125
0.4235	-0.0	-0.0	-0.0	-0.0	-0.0	-0.0	-1.387061357498169	6.014061450958252	-632.6627197265625	-0.0	-0.0	-0.0	-0.0	-0.0	-0.0	167350.640625	-22904.8203125	-964.8179931640624
0.424	-0.0	-0.0	-0.0	-0.0	-0.0	-0.0	-1.1936732530593872	5.877469062805176	-637.5509033203125	-0.0	-0.0	-0.0	-0.0	-0.0	-0.0	168118.09375	-23717.65234375	-1016.0341186523438
0.4245	-0.0	-0.0	-0.0	-0.0	-0.0	-0.0	-0.5966086983680725	5.998103618621826	-640.915771484375	-0.0	-0.0	-0.0	-0.0	-0.0	-0.0	168821.9375	-24249.478515625	-977.8141479492188
0.425	-0.0	-0.0	-0.0	-0.0	-0.0	-0.0	-0.6058287620544434	5.026795864105225	-643.9618530273438	-0.0	-0.0	-0.0	-0.0	-0.0	-0.0	169352.484375	-25000.337890625	-999.53173828125
0.4255	-0.0	-0.0	-0.0	-0.0	-0.0	-0.0	-0.3548431396484375	3.861613750457764	-645.6394653320312	-0.0	-0.0	-0.0	-0.0	-0.0	-0.0	169627.3125	-25446.572265625	-1045.755126953125
0.426	-0.0	-0.0	-0.0	-0.0	-0.0	-0.0	0.007170133292675	2.794473886489868	-647.5787353515625	-0.0	-0.0	-0.0	-0.0	-0.0	-0.0	170139.046875	-25900.98046875	-878.51904296875
0.4265	-0.0	-0.0	-0.0	-0.0	-0.0	-0.0	0.8871078491210938	1.7098551988601685	-649.6456298828125	-0.0	-0.0	-0.0	-0.0	-0.0	-0.0	169664.375	-26328.830078125	-594.5357055664062
0.427	-0.0	-0.0	-0.0	-0.0	-0.0	-0.0	0.862036943435669	0.6998540759086609	-647.649658203125	-0.0	-0.0	-0.0	-0.0	-0.0	-0.0	168850.34375	-26805.0390625	-676.9684448242188
0.4275	-0.0	-0.0	-0.0	-0.0	-0.0	-0.0	1.153240203857422	-0.8646034002304077	-645.3571166992188	-0.0	-0.0	-0.0	-0.0	-0.0	-0.0	167931.171875	-26855.474609375	-395.647216796875
0.428	-0.0	-0.0	-0.0	-0.0	-0.0	-0.0	1.1341813802719116	-1.8925682306289675	-643.611083984375	-0.0	-0.0	-0.0	-0.0	-0.0	-0.0	167010.53125	-27056.5859375	-391.6797180175781
0.4285	-0.0	-0.0	-0.0	-0.0	-0.0	-0.0	1.5845603942871094	-3.9866559505462646	-642.739990234375	-0.0	-0.0	-0.0	-0.0	-0.0	-0.0	166442.09375	-27227.14453125	-188.4397430419922
0.429	-0.0	-0.0	-0.0	-0.0	-0.0	-0.0	1.7426837682724	-5.646728515625	-641.8648071289062	-0.0	-0.0	-0.0	-0.0	-0.0	-0.0	166047.84375	-27102.23046875	-59.52295303344727
0.4295	-0.0	-0.0	-0.0	-0.0	-0.0	-0.0	1.685504913330078	-6.188167095184326	-639.7472534179688	-0.0	-0.0	-0.0	-0.0	-0.0	-0.0	165401.359375	-27317.9375	-10.893491744995115
0.43	-0.0	-0.0	-0.0	-0.0	-0.0	-0.0	2.154973268508911	-6.447483062744141	-640.4891967773438	-0.0	-0.0	-0.0	-0.0	-0.0	-0.0	165656.84375	-27374.146484375	66.0549087524414
0.4305	-0.0	-0.0	-0.0	-0.0	-0.0	-0.0	1.7742156982421875	-5.652587890625	-642.664794921875	-0.0	-0.0	-0.0	-0.0	-0.0	-0.0	165886.359375	-27565.521484375	78.34478759765625
0.431	-0.0	-0.0	-0.0	-0.0	-0.0	-0.0	2.4264485836029053	-4.416084289550781	-643.9785766601562	-0.0	-0.0	-0.0	-0.0	-0.0	-0.0	166412.796875	-27782.267578125	-29.060035705566406
0.4315	-0.0	-0.0	-0.0	-0.0	-0.0	-0.0	2.714005470275879	-3.886154174804688	-645.4395751953125	-0.0	-0.0	-0.0	-0.0	-0.0	-0.0	166796.296875	-28029.958984375	-100.09674072265624
0.432	-0.0	-0.0	-0.0	-0.0	-0.0	-0.0	2.6878013610839844	-3.532867431640625	-646.2796630859375	-0.0	-0.0	-0.0	-0.0	-0.0	-0.0	167371.4375	-28177.2890625	-39.05485916137695
0.4325	-0.0	-0.0	-0.0	-0.0	-0.0	-0.0	2.6701760292053223	-3.890561103820801	-647.9554443359375	-0.0	-0.0	-0.0	-0.0	-0.0	-0.0	167811.5625	-28215.42578125	-98.46267700195312
0.433	-0.0	-0.0	-0.0	-0.0	-0.0	-0.0	2.7190659046173096	-3.766999959945679	-650.1367797851562	-0.0	-0.0	-0.0	-0.0	-0.0	-0.0	168598.40625	-28302.5	-56.94850158691406
0.4335	-0.0	-0.0	-0.0	-0.0	-0.0	-0.0	2.5456972122192383	-3.2639377117156982	-650.5007934570312	-0.0	-0.0	-0.0	-0.0	-0.0	-0.0	169161.90625	-27910.150390625	-393.6513977050781
0.434	-0.0	-0.0	-0.0	-0.0	-0.0	-0.0	1.9478453397750852	-2.4692318439483643	-650.363037109375	-0.0	-0.0	-0.0	-0.0	-0.0	-0.0	169775.265625	-27958.365234375	-573.16943359375
0.4345	-0.0	-0.0	-0.0	-0.0	-0.0	-0.0	1.0952863693237305	-1.5014686584472656	-652.6714477539062	-0.0	-0.0	-0.0	-0.0	-0.0	-0.0	170673.421875	-27774.669921875	-928.2820434570312
0.435	-0.0	-0.0	-0.0	-0.0	-0.0	-0.0	0.9518671035766602	-1.0020979642868042	-654.081787109375	-0.0	-0.0	-0.0	-0.0	-0.0	-0.0	171220.609375	-27683.7734375	-1080.0013427734375
0.4355	-0.0	-0.0	-0.0	-0.0	-0.0	-0.0	0.4435539245605469	-1.0629932880401611	-655.3699951171875	-0.0	-0.0	-0.0	-0.0	-0.0	-0.0	172281.046875	-27498.98828125	-1275.5084228515625
0.436	-0.0	-0.0	-0.0	-0.0	-0.0	-0.0	0.2632031440734863	-1.586874008178711	-657.921875	-0.0	-0.0	-0.0	-0.0	-0.0	-0.0	173103.9375	-27741.005859375	-1424.0899658203125
0.4365	-0.0	-0.0	-0.0	-0.0	-0.0	-0.0	-0.1414598971605301	-1.5345454216003418	-659.0782470703125	-0.0	-0.0	-0.0	-0.0	-0.0	-0.0	174003.359375	-27588.572265625	-1593.071044921875
0.437	-0.0	-0.0	-0.0	-0.0	-0.0	-0.0	-0.1141020804643631	-1.1179091930389404	-660.1260375976562	-0.0	-0.0	-0.0	-0.0	-0.0	-0.0	174378.96875	-27701.4921875	-1800.5426025390625
0.4375	-0.0	-0.0	-0.0	-0.0	-0.0	-0.0	0.4132109880447387	0.6507695913314819	-662.800048828125	-0.0	-0.0	-0.0	-0.0	-0.0	-0.0	175714.40625	-27711.572265625	-1946.446044921875
0.438	-0.0	-0.0	-0.0	-0.0	-0.0	-0.0	1.185619592666626	3.94853138923645	-665.9429931640625	-0.0	-0.0	-0.0	-0.0	-0.0	-0.0	177008.859375	-27784.45703125	-1746.92333984375
0.4385	-0.0	-0.0	-0.0	-0.0	-0.0	-0.0	3.253978729248047	5.241042137145996	-666.1738891601562	-0.0	-0.0	-0.0	-0.0	-0.0	-0.0	177617.0	-27963.396484375	-1171.565185546875
0.439	-0.0	-0.0	-0.0	-0.0	-0.0	-0.0	5.3226470947265625	5.444266319274902	-665.1272583007812	-0.0	-0.0	-0.0	-0.0	-0.0	-0.0	177162.75	-27884.16015625	-379.3369445800781
0.4395	-0.0	-0.0	-0.0	-0.0	-0.0	-0.0	5.939241409301758	3.708056926727295	-658.961669921875	-0.0	-0.0	-0.0	-0.0	-0.0	-0.0	176067.3125	-27659.56640625	15.704954147338867
0.44	-0.0	-0.0	-0.0	-0.0	-0.0	-0.0	5.143983840942383	2.061251401901245	-655.8052368164062	-0.0	-0.0	-0.0	-0.0	-0.0	-0.0	174835.765625	-27432.330078125	43.87239837646485
0.4405	-0.0	-0.0	-0.0	-0.0	-0.0	-0.0	4.050775527954102	0.971538543701172	-650.9322509765625	-0.0	-0.0	-0.0	-0.0	-0.0	-0.0	173946.859375	-26816.345703125	-26.18501281738281
0.441	-0.0	-0.0	-0.0	-0.0	-0.0	-0.0	3.7556962966918954	1.4412286281585691	-648.1395874023438	-0.0	-0.0	-0.0	-0.0	-0.0	-0.0	173125.953125	-27123.59375	72.0706558227539
0.4415	-0.0	-0.0	-0.0	-0.0	-0.0	-0.0	4.879721641540527	2.3272647857666016	-646.8607177734375	-0.0	-0.0	-0.0	-0.0	-0.0	-0.0	172854.953125	-27294.904296875	538.2245483398438
0.442	-0.0	-0.0	-0.0	-0.0	-0.0	-0.0	6.5357584953308105	3.945326328277588	-646.8593139648438	-0.0	-0.0	-0.0	-0.0	-0.0	-0.0	172590.21875	-27726.517578125	1113.303466796875
0.4425	-0.0	-0.0	-0.0	-0.0	-0.0	-0.0	8.309587478637695	4.887407302856445	-644.3030395507812	-0.0	-0.0	-0.0	-0.0	-0.0	-0.0	172360.546875	-28055.7734375	1510.1751708984375
0.443	-0.0	-0.0	-0.0	-0.0	-0.0	-0.0	9.43291187286377	5.829237461090088	-643.6028442382812	-0.0	-0.0	-0.0	-0.0	-0.0	-0.0	172242.109375	-28342.869140625	1926.4647216796875
0.4435	-0.0	-0.0	-0.0	-0.0	-0.0	-0.0	10.49736785888672	6.094196319580078	-644.8839111328125	-0.0	-0.0	-0.0	-0.0	-0.0	-0.0	172074.234375	-28593.740234375	2273.34375
0.444	-0.0	-0.0	-0.0	-0.0	-0.0	-0.0	10.763432502746582	6.21224308013916	-642.9039306640625	-0.0	-0.0	-0.0	-0.0	-0.0	-0.0	172022.703125	-28966.978515625	2401.89306640625
0.4445	-0.0	-0.0	-0.0	-0.0	-0.0	-0.0	10.792717933654783	5.651949882507324	-644.0691528320312	-0.0	-0.0	-0.0	-0.0	-0.0	-0.0	172230.875	-29140.140625	2422.14404296875
0.445	-0.0	-0.0	-0.0	-0.0	-0.0	-0.0	10.262917518615724	6.270839691162109	-646.4052124023438	-0.0	-0.0	-0.0	-0.0	-0.0	-0.0	172349.8125	-29169.98828125	2392.097412109375
0.4455	-0.0	-0.0	-0.0	-0.0	-0.0	-0.0	8.902420043945312	6.297811031341553	-648.251220703125	-0.0	-0.0	-0.0	-0.0	-0.0	-0.0	173033.484375	-29339.396484375	1895.9493408203125
0.446	-0.0	-0.0	-0.0	-0.0	-0.0	-0.0	7.630402565002441	6.537074089050293	-651.3921508789062	-0.0	-0.0	-0.0	-0.0	-0.0	-0.0	173507.1875	-29352.205078125	1638.18310546875
0.4465	-0.0	-0.0	-0.0	-0.0	-0.0	-0.0	6.888866424560547	6.479423999786377	-653.1364135742188	-0.0	-0.0	-0.0	-0.0	-0.0	-0.0	174170.71875	-29587.37890625	1460.083251953125
0.447	-0.0	-0.0	-0.0	-0.0	-0.0	-0.0	6.62430477142334	6.917968273162842	-655.2501831054688	-0.0	-0.0	-0.0	-0.0	-0.0	-0.0	174213.875	-29522.177734375	1420.0758056640625
0.4475	-0.0	-0.0	-0.0	-0.0	-0.0	-0.0	6.2116780281066895	6.505087852478027	-655.471435546875	-0.0	-0.0	-0.0	-0.0	-0.0	-0.0	174327.15625	-29835.705078125	1361.585205078125
0.448	-0.0	-0.0	-0.0	-0.0	-0.0	-0.0	6.06547212600708	5.74517297744751	-655.2439575195312	-0.0	-0.0	-0.0	-0.0	-0.0	-0.0	174237.171875	-30096.765625	1122.641357421875
0.4485	-0.0	-0.0	-0.0	-0.0	-0.0	-0.0	5.735075950622559	4.893325805664063	-654.8859252929688	-0.0	-0.0	-0.0	-0.0	-0.0	-0.0	173822.015625	-30058.48046875	1342.5433349609375
0.449	-0.0	-0.0	-0.0	-0.0	-0.0	-0.0	5.969773769378662	3.530314445495605	-654.1971435546875	-0.0	-0.0	-0.0	-0.0	-0.0	-0.0	173343.75	-30064.66015625	1429.0164794921875
0.4495	-0.0	-0.0	-0.0	-0.0	-0.0	-0.0	6.621888160705566	3.2393829822540283	-652.6880493164062	-0.0	-0.0	-0.0	-0.0	-0.0	-0.0	172583.65625	-30263.58984375	1537.5555419921875
0.45	-0.0	-0.0	-0.0	-0.0	-0.0	-0.0	6.3556294441223145	1.997037410736084	-650.3569946289062	-0.0	-0.0	-0.0	-0.0	-0.0	-0.0	171954.15625	-30156.93359375	1537.0084228515625
0.4505	-0.0	-0.0	-0.0	-0.0	-0.0	-0.0	6.415680885314941	1.4099637269973757	-649.08544921875	-0.0	-0.0	-0.0	-0.0	-0.0	-0.0	171283.265625	-30153.732421875	1406.524169921875
0.451	-0.0	-0.0	-0.0	-0.0	-0.0	-0.0	6.976323127746582	0.879844069480896	-645.94384765625	-0.0	-0.0	-0.0	-0.0	-0.0	-0.0	170494.609375	-30320.97265625	1636.7071533203125
0.4515	-0.0	-0.0	-0.0	-0.0	-0.0	-0.0	7.951992034912109	0.2084817290306091	-643.2631225585938	-0.0	-0.0	-0.0	-0.0	-0.0	-0.0	169302.109375	-30107.099609375	1913.6925048828125
0.452	-0.0	-0.0	-0.0	-0.0	-0.0	-0.0	9.044670104980469	-0.2367954552173614	-641.74072265625	-0.0	-0.0	-0.0	-0.0	-0.0	-0.0	168266.890625	-30437.943359375	2159.825439453125
0.4525	-0.0	-0.0	-0.0	-0.0	-0.0	-0.0	9.911396980285645	-1.4412535429000854	-640.0108032226562	-0.0	-0.0	-0.0	-0.0	-0.0	-0.0	167426.21875	-30763.19140625	2211.26171875
0.453	-0.0	-0.0	-0.0	-0.0	-0.0	-0.0	10.14968490600586	-2.14351749420166	-639.2799072265625	-0.0	-0.0	-0.0	-0.0	-0.0	-0.0	167044.328125	-30998.716796875	2231.477294921875
0.4535	-0.0	-0.0	-0.0	-0.0	-0.0	-0.0	10.7014741897583	-1.7105000019073486	-636.8525390625	-0.0	-0.0	-0.0	-0.0	-0.0	-0.0	166292.40625	-31222.798828125	2291.307373046875
